<mxfile host="app.diagrams.net" agent="Mozilla/5.0 (Windows NT 10.0; Win64; x64) AppleWebKit/537.36 (KHTML, like Gecko) Chrome/130.0.0.0 Safari/537.36" version="24.8.4">
  <diagram name="Halaman-1" id="4TOvzC30tkpVwYizOAHj">
    <mxGraphModel dx="1750" dy="870" grid="1" gridSize="10" guides="1" tooltips="1" connect="1" arrows="1" fold="1" page="1" pageScale="1" pageWidth="827" pageHeight="1169" math="0" shadow="0">
      <root>
        <mxCell id="0" />
        <mxCell id="1" parent="0" />
        <mxCell id="1vo253mu_-FgSvlUDJ0Q-26" value="Website Posyandu" style="swimlane;html=1;childLayout=stackLayout;resizeParent=1;resizeParentMax=0;horizontal=0;startSize=20;horizontalStack=0;whiteSpace=wrap;" vertex="1" parent="1">
          <mxGeometry y="380" width="1530" height="670" as="geometry" />
        </mxCell>
        <mxCell id="1vo253mu_-FgSvlUDJ0Q-27" value="Staff Posyandu" style="swimlane;html=1;startSize=20;horizontal=0;" vertex="1" parent="1vo253mu_-FgSvlUDJ0Q-26">
          <mxGeometry x="20" width="1510" height="240" as="geometry" />
        </mxCell>
        <mxCell id="1vo253mu_-FgSvlUDJ0Q-110" value="" style="edgeStyle=orthogonalEdgeStyle;rounded=0;orthogonalLoop=1;jettySize=auto;html=1;" edge="1" parent="1vo253mu_-FgSvlUDJ0Q-27" source="1vo253mu_-FgSvlUDJ0Q-90" target="1vo253mu_-FgSvlUDJ0Q-109">
          <mxGeometry relative="1" as="geometry" />
        </mxCell>
        <mxCell id="1vo253mu_-FgSvlUDJ0Q-90" value="Start" style="ellipse;whiteSpace=wrap;html=1;rounded=1;" vertex="1" parent="1vo253mu_-FgSvlUDJ0Q-27">
          <mxGeometry x="30" y="10" width="80" height="80" as="geometry" />
        </mxCell>
        <mxCell id="1vo253mu_-FgSvlUDJ0Q-112" value="" style="edgeStyle=orthogonalEdgeStyle;rounded=0;orthogonalLoop=1;jettySize=auto;html=1;" edge="1" parent="1vo253mu_-FgSvlUDJ0Q-27" source="1vo253mu_-FgSvlUDJ0Q-109" target="1vo253mu_-FgSvlUDJ0Q-111">
          <mxGeometry relative="1" as="geometry" />
        </mxCell>
        <mxCell id="1vo253mu_-FgSvlUDJ0Q-109" value="Membuka Website" style="whiteSpace=wrap;html=1;rounded=1;" vertex="1" parent="1vo253mu_-FgSvlUDJ0Q-27">
          <mxGeometry x="170" y="20" width="120" height="60" as="geometry" />
        </mxCell>
        <mxCell id="1vo253mu_-FgSvlUDJ0Q-116" value="" style="edgeStyle=orthogonalEdgeStyle;rounded=0;orthogonalLoop=1;jettySize=auto;html=1;" edge="1" parent="1vo253mu_-FgSvlUDJ0Q-27" source="1vo253mu_-FgSvlUDJ0Q-111" target="1vo253mu_-FgSvlUDJ0Q-115">
          <mxGeometry relative="1" as="geometry" />
        </mxCell>
        <mxCell id="1vo253mu_-FgSvlUDJ0Q-118" value="" style="edgeStyle=orthogonalEdgeStyle;rounded=0;orthogonalLoop=1;jettySize=auto;html=1;" edge="1" parent="1vo253mu_-FgSvlUDJ0Q-27" source="1vo253mu_-FgSvlUDJ0Q-111" target="1vo253mu_-FgSvlUDJ0Q-117">
          <mxGeometry relative="1" as="geometry" />
        </mxCell>
        <mxCell id="1vo253mu_-FgSvlUDJ0Q-111" value="Login" style="whiteSpace=wrap;html=1;rounded=1;" vertex="1" parent="1vo253mu_-FgSvlUDJ0Q-27">
          <mxGeometry x="334" y="70" width="120" height="60" as="geometry" />
        </mxCell>
        <mxCell id="1vo253mu_-FgSvlUDJ0Q-115" value="Isi Laporan" style="whiteSpace=wrap;html=1;rounded=1;" vertex="1" parent="1vo253mu_-FgSvlUDJ0Q-27">
          <mxGeometry x="660" y="170" width="120" height="60" as="geometry" />
        </mxCell>
        <mxCell id="1vo253mu_-FgSvlUDJ0Q-117" value="Isi Dokumentasi" style="whiteSpace=wrap;html=1;rounded=1;" vertex="1" parent="1vo253mu_-FgSvlUDJ0Q-27">
          <mxGeometry x="500" y="130" width="120" height="60" as="geometry" />
        </mxCell>
        <mxCell id="1vo253mu_-FgSvlUDJ0Q-119" value="Isi Jadwal" style="whiteSpace=wrap;html=1;rounded=1;" vertex="1" parent="1vo253mu_-FgSvlUDJ0Q-27">
          <mxGeometry x="600" y="20" width="120" height="60" as="geometry" />
        </mxCell>
        <mxCell id="1vo253mu_-FgSvlUDJ0Q-120" value="" style="edgeStyle=orthogonalEdgeStyle;rounded=0;orthogonalLoop=1;jettySize=auto;html=1;" edge="1" parent="1vo253mu_-FgSvlUDJ0Q-27" source="1vo253mu_-FgSvlUDJ0Q-111" target="1vo253mu_-FgSvlUDJ0Q-119">
          <mxGeometry relative="1" as="geometry" />
        </mxCell>
        <mxCell id="1vo253mu_-FgSvlUDJ0Q-37" value="Sistem" style="swimlane;html=1;startSize=20;horizontal=0;" vertex="1" parent="1vo253mu_-FgSvlUDJ0Q-26">
          <mxGeometry x="20" y="240" width="1510" height="175" as="geometry" />
        </mxCell>
        <mxCell id="1vo253mu_-FgSvlUDJ0Q-59" value="" style="edgeStyle=orthogonalEdgeStyle;rounded=0;orthogonalLoop=1;jettySize=auto;html=1;" edge="1" parent="1vo253mu_-FgSvlUDJ0Q-37" source="1vo253mu_-FgSvlUDJ0Q-56">
          <mxGeometry relative="1" as="geometry">
            <mxPoint x="550" y="59.99999999999977" as="targetPoint" />
          </mxGeometry>
        </mxCell>
        <mxCell id="1vo253mu_-FgSvlUDJ0Q-56" value="Periksa Kelengkapan Laporan" style="rounded=1;whiteSpace=wrap;html=1;" vertex="1" parent="1vo253mu_-FgSvlUDJ0Q-37">
          <mxGeometry x="324" y="30" width="96" height="60" as="geometry" />
        </mxCell>
        <mxCell id="1vo253mu_-FgSvlUDJ0Q-62" value="" style="edgeStyle=orthogonalEdgeStyle;rounded=0;orthogonalLoop=1;jettySize=auto;html=1;" edge="1" parent="1vo253mu_-FgSvlUDJ0Q-37" source="1vo253mu_-FgSvlUDJ0Q-60" target="1vo253mu_-FgSvlUDJ0Q-61">
          <mxGeometry relative="1" as="geometry" />
        </mxCell>
        <mxCell id="1vo253mu_-FgSvlUDJ0Q-60" value="" style="rhombus;whiteSpace=wrap;html=1;" vertex="1" parent="1vo253mu_-FgSvlUDJ0Q-37">
          <mxGeometry x="550" y="25" width="80" height="80" as="geometry" />
        </mxCell>
        <mxCell id="1vo253mu_-FgSvlUDJ0Q-72" value="" style="edgeStyle=orthogonalEdgeStyle;rounded=0;orthogonalLoop=1;jettySize=auto;html=1;" edge="1" parent="1vo253mu_-FgSvlUDJ0Q-37" source="1vo253mu_-FgSvlUDJ0Q-61" target="1vo253mu_-FgSvlUDJ0Q-71">
          <mxGeometry relative="1" as="geometry" />
        </mxCell>
        <mxCell id="1vo253mu_-FgSvlUDJ0Q-61" value="YA" style="text;strokeColor=none;align=center;fillColor=none;html=1;verticalAlign=middle;whiteSpace=wrap;rounded=0;" vertex="1" parent="1vo253mu_-FgSvlUDJ0Q-37">
          <mxGeometry x="650" y="50" width="60" height="30" as="geometry" />
        </mxCell>
        <mxCell id="1vo253mu_-FgSvlUDJ0Q-74" value="" style="edgeStyle=orthogonalEdgeStyle;rounded=0;orthogonalLoop=1;jettySize=auto;html=1;" edge="1" parent="1vo253mu_-FgSvlUDJ0Q-37" source="1vo253mu_-FgSvlUDJ0Q-64" target="1vo253mu_-FgSvlUDJ0Q-73">
          <mxGeometry relative="1" as="geometry" />
        </mxCell>
        <mxCell id="1vo253mu_-FgSvlUDJ0Q-64" value="TIDAK" style="text;strokeColor=none;align=center;fillColor=none;html=1;verticalAlign=middle;whiteSpace=wrap;rounded=0;" vertex="1" parent="1vo253mu_-FgSvlUDJ0Q-37">
          <mxGeometry x="560" y="135" width="60" height="30" as="geometry" />
        </mxCell>
        <mxCell id="1vo253mu_-FgSvlUDJ0Q-66" value="" style="edgeStyle=orthogonalEdgeStyle;rounded=0;orthogonalLoop=1;jettySize=auto;html=1;" edge="1" parent="1vo253mu_-FgSvlUDJ0Q-37" source="1vo253mu_-FgSvlUDJ0Q-60" target="1vo253mu_-FgSvlUDJ0Q-64">
          <mxGeometry relative="1" as="geometry" />
        </mxCell>
        <mxCell id="1vo253mu_-FgSvlUDJ0Q-76" value="" style="edgeStyle=orthogonalEdgeStyle;rounded=0;orthogonalLoop=1;jettySize=auto;html=1;" edge="1" parent="1vo253mu_-FgSvlUDJ0Q-37" source="1vo253mu_-FgSvlUDJ0Q-71" target="1vo253mu_-FgSvlUDJ0Q-75">
          <mxGeometry relative="1" as="geometry" />
        </mxCell>
        <mxCell id="1vo253mu_-FgSvlUDJ0Q-71" value="Convert to PDF" style="rounded=1;whiteSpace=wrap;html=1;" vertex="1" parent="1vo253mu_-FgSvlUDJ0Q-37">
          <mxGeometry x="760" y="35" width="120" height="60" as="geometry" />
        </mxCell>
        <mxCell id="1vo253mu_-FgSvlUDJ0Q-78" value="" style="edgeStyle=orthogonalEdgeStyle;rounded=0;orthogonalLoop=1;jettySize=auto;html=1;" edge="1" parent="1vo253mu_-FgSvlUDJ0Q-37" source="1vo253mu_-FgSvlUDJ0Q-73" target="1vo253mu_-FgSvlUDJ0Q-77">
          <mxGeometry relative="1" as="geometry" />
        </mxCell>
        <mxCell id="1vo253mu_-FgSvlUDJ0Q-73" value="Revisi Laporan" style="rounded=1;whiteSpace=wrap;html=1;" vertex="1" parent="1vo253mu_-FgSvlUDJ0Q-37">
          <mxGeometry x="680" y="131.25" width="110" height="37.5" as="geometry" />
        </mxCell>
        <mxCell id="1vo253mu_-FgSvlUDJ0Q-75" value="Kirim Laporan ke Admin" style="rounded=1;whiteSpace=wrap;html=1;" vertex="1" parent="1vo253mu_-FgSvlUDJ0Q-37">
          <mxGeometry x="960" y="35" width="120" height="60" as="geometry" />
        </mxCell>
        <mxCell id="1vo253mu_-FgSvlUDJ0Q-79" value="" style="edgeStyle=orthogonalEdgeStyle;rounded=0;orthogonalLoop=1;jettySize=auto;html=1;entryX=0.5;entryY=1;entryDx=0;entryDy=0;" edge="1" parent="1vo253mu_-FgSvlUDJ0Q-37" source="1vo253mu_-FgSvlUDJ0Q-77" target="1vo253mu_-FgSvlUDJ0Q-71">
          <mxGeometry relative="1" as="geometry">
            <Array as="points">
              <mxPoint x="820" y="115" />
            </Array>
          </mxGeometry>
        </mxCell>
        <mxCell id="1vo253mu_-FgSvlUDJ0Q-77" value="ACT Isi Laporan" style="rounded=1;whiteSpace=wrap;html=1;" vertex="1" parent="1vo253mu_-FgSvlUDJ0Q-37">
          <mxGeometry x="852" y="127.5" width="110" height="45" as="geometry" />
        </mxCell>
        <mxCell id="1vo253mu_-FgSvlUDJ0Q-53" value="Simpan Laporan" style="rounded=1;whiteSpace=wrap;html=1;" vertex="1" parent="1vo253mu_-FgSvlUDJ0Q-37">
          <mxGeometry x="170" y="40" width="70" height="40" as="geometry" />
        </mxCell>
        <mxCell id="1vo253mu_-FgSvlUDJ0Q-57" value="" style="edgeStyle=orthogonalEdgeStyle;rounded=0;orthogonalLoop=1;jettySize=auto;html=1;" edge="1" parent="1vo253mu_-FgSvlUDJ0Q-37" source="1vo253mu_-FgSvlUDJ0Q-53" target="1vo253mu_-FgSvlUDJ0Q-56">
          <mxGeometry relative="1" as="geometry" />
        </mxCell>
        <mxCell id="1vo253mu_-FgSvlUDJ0Q-28" value="Admin Puskesmas" style="swimlane;html=1;startSize=20;horizontal=0;" vertex="1" parent="1vo253mu_-FgSvlUDJ0Q-26">
          <mxGeometry x="20" y="415" width="1510" height="120" as="geometry" />
        </mxCell>
        <mxCell id="1vo253mu_-FgSvlUDJ0Q-83" value="" style="edgeStyle=orthogonalEdgeStyle;rounded=0;orthogonalLoop=1;jettySize=auto;html=1;" edge="1" parent="1vo253mu_-FgSvlUDJ0Q-28" source="1vo253mu_-FgSvlUDJ0Q-80" target="1vo253mu_-FgSvlUDJ0Q-82">
          <mxGeometry relative="1" as="geometry" />
        </mxCell>
        <mxCell id="1vo253mu_-FgSvlUDJ0Q-80" value="Terima Laporan" style="whiteSpace=wrap;html=1;rounded=1;" vertex="1" parent="1vo253mu_-FgSvlUDJ0Q-28">
          <mxGeometry x="960" y="35" width="120" height="60" as="geometry" />
        </mxCell>
        <mxCell id="1vo253mu_-FgSvlUDJ0Q-88" value="" style="edgeStyle=orthogonalEdgeStyle;rounded=0;orthogonalLoop=1;jettySize=auto;html=1;" edge="1" parent="1vo253mu_-FgSvlUDJ0Q-28" source="1vo253mu_-FgSvlUDJ0Q-82" target="1vo253mu_-FgSvlUDJ0Q-87">
          <mxGeometry relative="1" as="geometry" />
        </mxCell>
        <mxCell id="1vo253mu_-FgSvlUDJ0Q-82" value="Tinjau Laporan" style="rounded=1;whiteSpace=wrap;html=1;" vertex="1" parent="1vo253mu_-FgSvlUDJ0Q-28">
          <mxGeometry x="1160" y="35" width="120" height="60" as="geometry" />
        </mxCell>
        <mxCell id="1vo253mu_-FgSvlUDJ0Q-87" value="End" style="ellipse;whiteSpace=wrap;html=1;rounded=1;" vertex="1" parent="1vo253mu_-FgSvlUDJ0Q-28">
          <mxGeometry x="1380" y="25" width="80" height="80" as="geometry" />
        </mxCell>
        <mxCell id="1vo253mu_-FgSvlUDJ0Q-29" value="Masyarakat" style="swimlane;html=1;startSize=20;horizontal=0;" vertex="1" parent="1vo253mu_-FgSvlUDJ0Q-26">
          <mxGeometry x="20" y="535" width="1510" height="135" as="geometry" />
        </mxCell>
        <mxCell id="1vo253mu_-FgSvlUDJ0Q-96" value="" style="edgeStyle=orthogonalEdgeStyle;rounded=0;orthogonalLoop=1;jettySize=auto;html=1;" edge="1" parent="1vo253mu_-FgSvlUDJ0Q-29" source="1vo253mu_-FgSvlUDJ0Q-94" target="1vo253mu_-FgSvlUDJ0Q-95">
          <mxGeometry relative="1" as="geometry" />
        </mxCell>
        <mxCell id="1vo253mu_-FgSvlUDJ0Q-94" value="Start" style="ellipse;whiteSpace=wrap;html=1;rounded=1;" vertex="1" parent="1vo253mu_-FgSvlUDJ0Q-29">
          <mxGeometry x="40" y="20" width="80" height="80" as="geometry" />
        </mxCell>
        <mxCell id="1vo253mu_-FgSvlUDJ0Q-124" value="" style="edgeStyle=orthogonalEdgeStyle;rounded=0;orthogonalLoop=1;jettySize=auto;html=1;" edge="1" parent="1vo253mu_-FgSvlUDJ0Q-29" source="1vo253mu_-FgSvlUDJ0Q-95" target="1vo253mu_-FgSvlUDJ0Q-123">
          <mxGeometry relative="1" as="geometry" />
        </mxCell>
        <mxCell id="1vo253mu_-FgSvlUDJ0Q-95" value="Membuaka Website" style="whiteSpace=wrap;html=1;rounded=1;" vertex="1" parent="1vo253mu_-FgSvlUDJ0Q-29">
          <mxGeometry x="180" y="30" width="120" height="60" as="geometry" />
        </mxCell>
        <mxCell id="1vo253mu_-FgSvlUDJ0Q-123" value="Akses Informasi" style="whiteSpace=wrap;html=1;rounded=1;" vertex="1" parent="1vo253mu_-FgSvlUDJ0Q-29">
          <mxGeometry x="380" y="30" width="110" height="60" as="geometry" />
        </mxCell>
        <mxCell id="1vo253mu_-FgSvlUDJ0Q-81" value="" style="edgeStyle=orthogonalEdgeStyle;rounded=0;orthogonalLoop=1;jettySize=auto;html=1;" edge="1" parent="1vo253mu_-FgSvlUDJ0Q-26" source="1vo253mu_-FgSvlUDJ0Q-75" target="1vo253mu_-FgSvlUDJ0Q-80">
          <mxGeometry relative="1" as="geometry" />
        </mxCell>
        <mxCell id="1vo253mu_-FgSvlUDJ0Q-122" value="" style="edgeStyle=orthogonalEdgeStyle;rounded=0;orthogonalLoop=1;jettySize=auto;html=1;" edge="1" parent="1vo253mu_-FgSvlUDJ0Q-26" source="1vo253mu_-FgSvlUDJ0Q-115" target="1vo253mu_-FgSvlUDJ0Q-53">
          <mxGeometry relative="1" as="geometry" />
        </mxCell>
      </root>
    </mxGraphModel>
  </diagram>
</mxfile>
